<svg xmlns="http://www.w3.org/2000/svg" width="980" height="260" viewBox="0 0 980 260">
  <rect width="980" height="260" fill="#ffffff"/>
  <defs><marker id="arrow" markerWidth="10" markerHeight="10" refX="9" refY="3" orient="auto"><path d="M0,0 L0,6 L9,3 z" fill="#333"/></marker></defs>
  <g font-family="Arial, sans-serif" font-size="14">
    <rect x="30" y="80" width="150" height="70" rx="12" fill="#e8f1ff" stroke="#3366cc"/>
    <text x="105" y="108" text-anchor="middle" font-weight="bold">CLINS style</text><text x="105" y="130" text-anchor="middle">collection Bundle</text>
    <rect x="230" y="80" width="160" height="70" rx="12" fill="#fff5d6" stroke="#cc9900"/>
    <text x="310" y="108" text-anchor="middle" font-weight="bold">DocumentImport</text><text x="310" y="130" text-anchor="middle">Process</text>
    <rect x="440" y="80" width="170" height="70" rx="12" fill="#e9f8ee" stroke="#339966"/>
    <text x="525" y="108" text-anchor="middle" font-weight="bold">transaction Bundle</text><text x="525" y="130" text-anchor="middle">conversion</text>
    <rect x="660" y="30" width="190" height="70" rx="12" fill="#f2e9ff" stroke="#663399"/>
    <text x="755" y="58" text-anchor="middle" font-weight="bold">FHIR Repository</text><text x="755" y="80" text-anchor="middle">FHIR resources</text>
    <rect x="660" y="150" width="190" height="70" rx="12" fill="#f2e9ff" stroke="#663399"/>
    <text x="755" y="178" text-anchor="middle" font-weight="bold">Demo_Condition</text><text x="755" y="200" text-anchor="middle">RDB table</text>
    <line x1="180" y1="115" x2="230" y2="115" stroke="#333" stroke-width="2" marker-end="url(#arrow)"/>
    <line x1="390" y1="115" x2="440" y2="115" stroke="#333" stroke-width="2" marker-end="url(#arrow)"/>
    <line x1="610" y1="105" x2="660" y2="72" stroke="#333" stroke-width="2" marker-end="url(#arrow)"/>
    <line x1="390" y1="130" x2="660" y2="180" stroke="#333" stroke-width="2" marker-end="url(#arrow)"/>
  </g>
</svg>
